# xmcd CD database file
#
# Track frame offsets:
#	150
#	13577
#	27595
#	41413
#	56094
#	70571
#	83390
#	97588
#	113473
#	126089
#	140977
#	155774
#	170170
#	183449
#	199990
#	212552
#
# Disc length: 3331 seconds
#
# Revision: 0
# Processed by: cddbd v1.5.1PL0 Copyright (c) Steve Scherf et al.
# Submitted via: CDex 1.51
#
DISCID=d70d0110
DTITLE=Duke Ellington - The Early Years 1927-1946 CD 2
DYEAR=1900
DGENRE=Jazz
TTITLE0=Caravan
TTITLE1=Mood Indigo
TTITLE2=Bli-Blip
TTITLE3=Concerto for Cootie
TTITLE4=Jack de Bear
TTITLE5=Ring dem Bells
TTITLE6=Limehouse Blues
TTITLE7=The Mooche
TTITLE8=Washington Wobble
TTITLE9=Hot and Bothered
TTITLE10=Blues of the Vagabond
TTITLE11=Five O'Clock Drag
TTITLE12=Harlem Air Shaft
TTITLE13=Jumpin' Punkins
TTITLE14=Black Beauty
TTITLE15=Creole Rhapsody, Parts 1 and 2
EXTD=
EXTT0=
EXTT1=
EXTT2=
EXTT3=
EXTT4=
EXTT5=
EXTT6=
EXTT7=
EXTT8=
EXTT9=
EXTT10=
EXTT11=
EXTT12=
EXTT13=
EXTT14=
EXTT15=
PLAYORDER=
